<svg width="22" height="22" viewBox="0 0 22 22" fill="none" xmlns="http://www.w3.org/2000/svg">
<path d="M6.37817 14.638V4.98878C6.37817 4.77195 6.37817 4.66353 6.44553 4.59617C6.5129 4.52881 6.62131 4.52881 6.83814 4.52881H18.2304C18.7243 4.52881 18.9712 4.52881 19.0286 4.67455C19.086 4.82029 18.9053 4.98864 18.5439 5.32532L14.2625 9.31418C14.1272 9.4403 14.0595 9.50336 14.0595 9.58341C14.0595 9.66346 14.1272 9.72652 14.2625 9.85265L18.5439 13.8415C18.9053 14.1782 19.086 14.3465 19.0286 14.4923C18.9712 14.638 18.7243 14.638 18.2304 14.638H6.37817ZM6.37817 14.638V18.6817" stroke="white" stroke-width="1.24545" stroke-linecap="round"/>
</svg>
