<svg width="19" height="19" viewBox="0 0 19 19" fill="none" xmlns="http://www.w3.org/2000/svg">
<path d="M14.7267 12.4494L17.5585 15.2811C17.9392 15.6619 17.9392 16.2793 17.5585 16.6601C15.4998 18.7188 12.2406 18.9504 9.91143 17.2035L8.22679 15.9401C6.36238 14.5418 4.70618 12.8856 3.30787 11.0211L2.04439 9.33651C0.297532 7.00736 0.529156 3.74816 2.58785 1.68947C2.96863 1.30869 3.58601 1.30869 3.96679 1.68947L6.79851 4.52119C7.21611 4.93879 7.21611 5.61585 6.79851 6.03345L5.70656 7.12539C5.53303 7.29893 5.49001 7.56404 5.59976 7.78354C6.86869 10.3214 8.92653 12.3792 11.4644 13.6482C11.6839 13.7579 11.949 13.7149 12.1225 13.5414L13.2145 12.4494C13.6321 12.0318 14.3091 12.0318 14.7267 12.4494Z" stroke="white" stroke-width="1.06933"/>
</svg>
