<svg width="20" height="20" viewBox="0 0 20 20" fill="none" xmlns="http://www.w3.org/2000/svg">
<path d="M2 19C2 15.4233 4.89949 12.5238 8.47619 12.5238C12.0529 12.5238 14.9524 15.4233 14.9524 19H2ZM8.47619 11.7143C5.79262 11.7143 3.61905 9.54071 3.61905 6.85714C3.61905 4.17357 5.79262 2 8.47619 2C11.1598 2 13.3333 4.17357 13.3333 6.85714C13.3333 9.54071 11.1598 11.7143 8.47619 11.7143ZM14.4366 13.5221C16.9343 14.1604 18.8121 16.3476 18.9867 19H16.5714C16.5714 16.8873 15.7621 14.9636 14.4366 13.5221ZM12.7991 11.6794C14.1208 10.4937 14.9524 8.77253 14.9524 6.85714C14.9524 5.70977 14.654 4.63209 14.1306 3.69747C15.9848 4.0675 17.381 5.70329 17.381 7.66667C17.381 9.90298 15.5696 11.7143 13.3333 11.7143C13.1522 11.7143 12.9739 11.7024 12.7991 11.6794Z" fill="#6243FF"/>
</svg>
